<?xml version="1.0" encoding="UTF-8"?> <!-- Generator: Adobe Illustrator 16.0.3, SVG Export Plug-In . SVG Version: 6.00 Build 0) --> <svg xmlns="http://www.w3.org/2000/svg" xmlns:xlink="http://www.w3.org/1999/xlink" id="Ebene_1" x="0px" y="0px" width="198.52px" height="40px" viewBox="290.677 242.346 198.52 40" xml:space="preserve"> <g> <path fill="#D3002A" d="M386.974,254.198v11.852c0,3.272-2.653,5.926-5.926,5.926h-10.37c-3.273,0-5.926-2.653-5.926-5.926v-11.852 c0-0.818,0.663-1.481,1.481-1.481h1.481c0.818,0,1.481,0.663,1.481,1.481v11.852c0,0.818,0.663,1.481,1.481,1.481h10.371 c0.819,0,1.482-0.663,1.482-1.482v-11.851c0-0.818,0.663-1.481,1.481-1.481h1.481C386.31,252.717,386.974,253.38,386.974,254.198z"></path> <path fill="#D3002A" d="M466.974,270.495v-11.852c0-3.273,2.653-5.926,5.926-5.926h10.37c3.272,0,5.927,2.653,5.927,5.926v11.852 c0,0.818-0.664,1.481-1.481,1.481h-1.48c-0.818,0-1.481-0.664-1.481-1.481v-11.852c0-0.818-0.664-1.481-1.48-1.481h-10.371 c-0.818,0-1.481,0.663-1.481,1.481v11.852c0,0.818-0.663,1.481-1.481,1.481h-1.481 C467.637,271.976,466.974,271.313,466.974,270.495z"></path> <path fill="#D3002A" d="M406.233,271.976h-10.371c-3.273,0-5.926-2.653-5.926-5.926v-7.408c0-3.273,2.653-5.926,5.926-5.926h10.371 c3.272,0,5.926,2.653,5.926,5.926v7.408C412.159,269.323,409.505,271.976,406.233,271.976z M406.233,267.531 c0.817,0,1.481-0.664,1.481-1.481v-7.408c0-0.817-0.665-1.481-1.481-1.481h-10.371c-0.817,0-1.481,0.665-1.481,1.481v7.408 c0,0.817,0.664,1.481,1.481,1.481H406.233z"></path> <path fill="#D3002A" d="M458.085,271.976h-10.371c-3.272,0-5.926-2.653-5.926-5.926v-7.408c0-3.273,2.653-5.926,5.926-5.926h10.371 c3.272,0,5.926,2.653,5.926,5.926v7.408C464.011,269.323,461.357,271.976,458.085,271.976z M458.085,267.531 c0.817,0,1.481-0.664,1.481-1.481v-7.408c0-0.817-0.664-1.481-1.481-1.481h-10.371c-0.816,0-1.48,0.665-1.48,1.481v7.408 c0,0.817,0.665,1.481,1.48,1.481H458.085z"></path> <path fill="#D3002A" d="M415.122,270.495v-11.852c0-3.273,2.653-5.926,5.926-5.926h8.89c0.817,0,1.48,0.663,1.48,1.481v1.481 c0,0.818-0.663,1.481-1.48,1.481h-8.89c-0.818,0-1.481,0.663-1.481,1.481v11.852c0,0.818-0.664,1.481-1.482,1.481h-1.481 C415.785,271.976,415.122,271.313,415.122,270.495z"></path> <path fill="#D3002A" d="M437.344,257.161h-1.48c-0.818,0-1.481-0.664-1.481-1.481v-1.481c0-0.818,0.663-1.481,1.481-1.481h1.48 c0.818,0,1.482,0.663,1.482,1.481v1.481C438.826,256.498,438.162,257.161,437.344,257.161z"></path> <path fill="#D3002A" d="M437.344,271.976h-1.48c-0.818,0-1.481-0.664-1.481-1.481v-10.371c0-0.818,0.663-1.481,1.481-1.481h1.48 c0.818,0,1.482,0.663,1.482,1.481v10.371C438.826,271.313,438.162,271.976,437.344,271.976z"></path> <path fill="#D3002A" d="M355.862,252.716h-10.371c-3.272,0-5.926,2.653-5.926,5.926v7.408c0,3.272,2.654,5.926,5.926,5.926h2.963 v2.963c0,0.817,0.664,1.481,1.481,1.481h1.481c0.818,0,1.482-0.664,1.482-1.481v-2.963h2.963c3.272,0,5.926-2.653,5.926-5.926 v-7.408C361.789,255.37,359.135,252.716,355.862,252.716z M357.344,266.05c0,0.817-0.665,1.481-1.481,1.481H352.9v-2.963 c0-0.818-0.664-1.481-1.482-1.481h-1.481c-0.818,0-1.481,0.664-1.481,1.481v2.963h-2.963c-0.817,0-1.481-0.664-1.481-1.481v-7.408 c0-0.817,0.665-1.481,1.481-1.481h10.371c0.817,0,1.481,0.665,1.481,1.481v7.408H357.344z"></path> <g> <path fill="#D3002A" d="M315.862,257.161h-10.371c-0.817,0-1.481,0.665-1.481,1.481v7.408c0,0.817,0.664,1.481,1.481,1.481h2.963 v-2.963c0-0.818,0.663-1.481,1.481-1.481h1.481c0.818,0,1.481,0.664,1.481,1.481v2.963h2.963c0.817,0,1.481-0.664,1.481-1.481 v-7.408C317.344,257.826,316.679,257.161,315.862,257.161z"></path> <path fill="#D3002A" d="M310.677,242.346c-11.046,0-20,8.954-20,20c0,11.045,8.954,20,20,20c11.046,0,20-8.954,20-20 C330.677,251.3,321.723,242.346,310.677,242.346z M321.788,266.05c0,3.272-2.653,5.926-5.926,5.926h-2.963v2.963 c0,0.817-0.663,1.481-1.481,1.481h-1.481c-0.818,0-1.481-0.664-1.481-1.481v-2.963h-2.963c-3.273,0-5.926-2.653-5.926-5.926 v-7.408c0-3.273,2.653-5.926,5.926-5.926h10.371c3.272,0,5.926,2.653,5.926,5.926v7.408H321.788z"></path> </g> </g> </svg> 