<?xml version="1.0" encoding="UTF-8"?> <svg xmlns="http://www.w3.org/2000/svg" width="198.329" height="40" viewBox="0 0 198.329 40"><g id="Gruppe_31" data-name="Gruppe 31" transform="translate(-26.6 -51.3)"><path id="Pfad_1" data-name="Pfad 1" d="M186.641,49.662V61.516a5.9,5.9,0,0,1-5.9,5.9H170.4a5.9,5.9,0,0,1-5.9-5.9V49.662a1.46,1.46,0,0,1,1.462-1.462h1.462a1.46,1.46,0,0,1,1.462,1.462V61.516a1.46,1.46,0,0,0,1.462,1.462h10.339a1.46,1.46,0,0,0,1.462-1.462V49.662a1.46,1.46,0,0,1,1.462-1.462h1.462A1.486,1.486,0,0,1,186.641,49.662Z" transform="translate(-63.801 13.492)" fill="#fff"></path><path id="Pfad_2" data-name="Pfad 2" d="M360,65.955V54.1a5.9,5.9,0,0,1,5.9-5.9H376.24a5.9,5.9,0,0,1,5.9,5.9V65.955a1.46,1.46,0,0,1-1.462,1.462h-1.462a1.46,1.46,0,0,1-1.462-1.462V54.1a1.46,1.46,0,0,0-1.462-1.462H365.953a1.46,1.46,0,0,0-1.462,1.462V65.955a1.46,1.46,0,0,1-1.462,1.462h-1.462A1.486,1.486,0,0,1,360,65.955Z" transform="translate(-157.212 13.492)" fill="#fff"></path><path id="Pfad_3" data-name="Pfad 3" d="M228.94,67.417H218.6a5.9,5.9,0,0,1-5.9-5.9V54.1a5.9,5.9,0,0,1,5.9-5.9H228.94a5.9,5.9,0,0,1,5.9,5.9v7.415A5.9,5.9,0,0,1,228.94,67.417Zm0-4.439a1.46,1.46,0,0,0,1.462-1.462V54.1a1.46,1.46,0,0,0-1.462-1.462H218.6a1.46,1.46,0,0,0-1.462,1.462v7.415a1.46,1.46,0,0,0,1.462,1.462Z" transform="translate(-86.831 13.492)" fill="#fff"></path><path id="Pfad_4" data-name="Pfad 4" d="M328.14,67.417H317.8a5.9,5.9,0,0,1-5.9-5.9V54.1a5.9,5.9,0,0,1,5.9-5.9H328.14a5.9,5.9,0,0,1,5.9,5.9v7.415A5.862,5.862,0,0,1,328.14,67.417Zm0-4.439a1.46,1.46,0,0,0,1.462-1.462V54.1a1.46,1.46,0,0,0-1.462-1.462H317.8a1.46,1.46,0,0,0-1.462,1.462v7.415a1.46,1.46,0,0,0,1.462,1.462Z" transform="translate(-134.23 13.492)" fill="#fff"></path><path id="Pfad_5" data-name="Pfad 5" d="M260.8,65.955V54.1a5.9,5.9,0,0,1,5.9-5.9h8.877a1.46,1.46,0,0,1,1.462,1.462v1.462a1.46,1.46,0,0,1-1.462,1.462H266.7a1.46,1.46,0,0,0-1.462,1.462V65.9a1.46,1.46,0,0,1-1.462,1.462h-1.462A1.4,1.4,0,0,1,260.8,65.955Z" transform="translate(-109.814 13.492)" fill="#fff"></path><path id="Pfad_6" data-name="Pfad 6" d="M300.624,52.639h-1.462a1.46,1.46,0,0,1-1.462-1.462V49.662a1.46,1.46,0,0,1,1.462-1.462h1.462a1.46,1.46,0,0,1,1.462,1.462v1.462A1.472,1.472,0,0,1,300.624,52.639Z" transform="translate(-127.445 13.492)" fill="#fff"></path><path id="Pfad_7" data-name="Pfad 7" d="M300.624,72.864h-1.462A1.46,1.46,0,0,1,297.7,71.4V61.062a1.46,1.46,0,0,1,1.462-1.462h1.462a1.46,1.46,0,0,1,1.462,1.462V71.4A1.428,1.428,0,0,1,300.624,72.864Z" transform="translate(-127.445 8.045)" fill="#fff"></path><path id="Pfad_8" data-name="Pfad 8" d="M132.54,48.2H122.2a5.9,5.9,0,0,0-5.9,5.9v7.415a5.9,5.9,0,0,0,5.9,5.9h2.977v2.977a1.46,1.46,0,0,0,1.462,1.462H128.1a1.46,1.46,0,0,0,1.462-1.462V67.417h2.977a5.9,5.9,0,0,0,5.9-5.9V54.1A5.9,5.9,0,0,0,132.54,48.2ZM134,61.516a1.46,1.46,0,0,1-1.462,1.462h-2.977V60a1.46,1.46,0,0,0-1.462-1.462h-1.462A1.46,1.46,0,0,0,125.177,60v2.977H122.2a1.46,1.46,0,0,1-1.462-1.462V54.1a1.46,1.46,0,0,1,1.462-1.462H132.54A1.46,1.46,0,0,1,134,54.1Z" transform="translate(-40.77 13.492)" fill="#fff"></path><g id="Gruppe_1" data-name="Gruppe 1" transform="translate(26.6 51.3)"><path id="Pfad_9" data-name="Pfad 9" d="M60.054,56.7H49.662A1.46,1.46,0,0,0,48.2,58.162v7.415a1.46,1.46,0,0,0,1.462,1.462h2.977V64.063A1.46,1.46,0,0,1,54.1,62.6h1.462a1.46,1.46,0,0,1,1.462,1.462v2.977H60a1.46,1.46,0,0,0,1.462-1.462V58.162A1.416,1.416,0,0,0,60.054,56.7Z" transform="translate(-34.832 -41.87)" fill="#fff"></path><path id="Pfad_10" data-name="Pfad 10" d="M42.6,28.3a20,20,0,1,0,20,20A20,20,0,0,0,42.6,28.3ZM53.723,52.008a5.9,5.9,0,0,1-5.9,5.9H44.845v2.977a1.46,1.46,0,0,1-1.462,1.462H41.921a1.46,1.46,0,0,1-1.462-1.462V57.908H37.43a5.9,5.9,0,0,1-5.9-5.9V44.592a5.9,5.9,0,0,1,5.9-5.9H47.77a5.9,5.9,0,0,1,5.9,5.9v7.415Z" transform="translate(-22.6 -28.3)" fill="#fff"></path></g></g></svg> 