<?xml version="1.0" encoding="UTF-8"?> <svg xmlns="http://www.w3.org/2000/svg" id="Gruppe_1" data-name="Gruppe 1" width="40" height="40" viewBox="0 0 40 40"><path id="Pfad_9" data-name="Pfad 9" d="M60.054,56.7H49.662A1.46,1.46,0,0,0,48.2,58.162v7.415a1.46,1.46,0,0,0,1.462,1.462h2.977V64.063A1.46,1.46,0,0,1,54.1,62.6h1.462a1.46,1.46,0,0,1,1.462,1.462v2.977H60a1.46,1.46,0,0,0,1.462-1.462V58.162A1.416,1.416,0,0,0,60.054,56.7Z" transform="translate(-34.832 -41.87)" fill="#ce0e2d"></path><path id="Pfad_10" data-name="Pfad 10" d="M42.6,28.3a20,20,0,1,0,20,20A20,20,0,0,0,42.6,28.3ZM53.723,52.008a5.9,5.9,0,0,1-5.9,5.9H44.845v2.977a1.46,1.46,0,0,1-1.462,1.462H41.921a1.46,1.46,0,0,1-1.462-1.462V57.908H37.43a5.9,5.9,0,0,1-5.9-5.9V44.592a5.9,5.9,0,0,1,5.9-5.9H47.77a5.9,5.9,0,0,1,5.9,5.9v7.415Z" transform="translate(-22.6 -28.3)" fill="#ce0e2d"></path></svg> 